<?xml version="1.0" standalone="no"?>
<!DOCTYPE svg PUBLIC "-//W3C//DTD SVG 20010904//EN"
 "http://www.w3.org/TR/2001/REC-SVG-20010904/DTD/svg10.dtd">
<svg version="1.0" xmlns="http://www.w3.org/2000/svg"
 width="600.000000pt" height="600.000000pt" viewBox="0 0 600.000000 600.000000"
 preserveAspectRatio="xMidYMid meet">
<g transform="translate(0.000000,600.000000) scale(0.100000,-0.100000)"
fill="#000000" stroke="none">
<path d="M1970 3826 c0 -2 8 -10 18 -17 15 -13 16 -12 3 4 -13 16 -21 21 -21
13z"/>
<path d="M1878 3813 c6 -2 18 -2 25 0 6 3 1 5 -13 5 -14 0 -19 -2 -12 -5z"/>
<path d="M1900 3755 c0 -8 7 -15 15 -15 8 0 15 7 15 15 0 8 -7 15 -15 15 -8 0
-15 -7 -15 -15z"/>
<path d="M1641 3746 c-9 -10 -9 -16 -1 -21 17 -10 37 12 24 25 -8 8 -15 6 -23
-4z"/>
<path d="M1708 3754 c-38 -11 -15 -22 36 -17 76 8 145 -17 204 -75 69 -68 104
-145 110 -243 4 -77 -6 -103 -24 -61 -8 20 -8 17 0 61 5 27 3 32 -9 27 -17 -6
-21 29 -6 54 14 22 1 34 -15 13 -12 -16 -13 -14 -14 22 -1 36 -2 38 -14 22
-14 -18 -15 -18 -24 0 -6 10 -14 14 -19 10 -4 -5 3 -18 17 -29 16 -13 24 -28
22 -43 -2 -14 3 -25 13 -29 11 -4 14 -13 10 -25 -3 -12 0 -21 10 -25 8 -3 15
-12 15 -21 0 -13 -6 -11 -30 7 -16 12 -30 30 -30 40 0 34 -44 113 -88 156 -50
50 -143 98 -211 107 -69 9 -190 -36 -191 -72 0 -7 21 2 46 20 40 28 53 32 112
32 52 0 80 -6 123 -26 91 -43 170 -127 194 -206 6 -22 6 -22 -29 -8 -19 8 -42
15 -51 15 -8 0 -34 18 -57 41 -141 137 -366 138 -470 2 -28 -36 -36 -63 -19
-63 5 0 14 14 21 30 56 135 306 155 438 34 35 -32 42 -42 27 -41 -23 2 -45 20
-45 37 0 7 -7 9 -15 6 -9 -3 -18 1 -22 9 -4 12 -9 13 -19 4 -11 -9 -14 -8 -14
2 0 20 -46 18 -59 -2 -8 -14 -5 -17 22 -15 20 0 31 -3 30 -11 -2 -8 9 -10 34
-6 26 4 34 3 29 -5 -4 -7 -1 -12 6 -13 7 -1 2 -4 -12 -8 -15 -5 -52 0 -95 12
-51 14 -85 18 -129 13 -151 -16 -285 -132 -286 -249 0 -52 16 -39 22 18 7 58
40 107 104 151 87 61 184 78 287 51 l48 -12 -56 -38 c-37 -25 -66 -37 -90 -37
-143 0 -305 -162 -305 -306 0 -59 29 -138 45 -122 3 2 -2 19 -10 36 -9 17 -16
55 -16 86 -2 135 124 266 279 291 l43 7 -26 -37 c-14 -21 -25 -41 -25 -45 0
-5 -22 -22 -50 -40 -61 -39 -91 -73 -124 -144 -53 -112 -44 -232 24 -308 21
-24 42 -40 46 -35 4 4 -3 15 -15 24 -13 8 -34 39 -47 67 -28 60 -31 129 -9
204 17 57 72 135 98 140 26 5 20 -17 -8 -30 -14 -6 -25 -15 -25 -20 0 -5 5 -6
10 -3 6 3 10 -3 10 -13 0 -11 -7 -22 -15 -26 -8 -3 -14 -11 -13 -18 2 -7 -7
-14 -20 -16 -12 -2 -20 -8 -16 -13 3 -5 10 -7 15 -4 5 4 9 -6 9 -20 0 -19 -5
-25 -16 -23 -10 2 -19 -3 -21 -9 -3 -7 2 -13 11 -13 9 0 16 -7 16 -15 0 -8 -7
-15 -15 -15 -8 0 -15 -7 -15 -16 0 -14 3 -14 15 -4 19 16 19 7 0 -29 -13 -26
-13 -29 3 -27 10 0 16 -6 16 -16 -1 -10 2 -18 7 -18 13 0 11 34 -3 48 -9 9 -9
12 0 12 8 0 10 9 6 25 -5 20 -3 24 10 19 11 -4 16 -19 16 -50 0 -59 33 -142
76 -193 41 -47 105 -84 137 -78 21 3 21 4 2 11 -95 34 -162 102 -186 189 -17
63 -7 183 20 245 13 28 26 52 30 52 16 0 34 -84 36 -170 2 -100 16 -150 58
-216 57 -90 158 -147 248 -142 29 2 54 8 56 14 2 7 -16 9 -55 6 -102 -7 -202
59 -256 171 -27 55 -43 149 -32 190 l6 25 35 -34 c19 -18 35 -38 35 -44 0 -20
53 -115 88 -157 l34 -43 -28 0 c-21 0 -25 3 -15 9 11 7 9 10 -10 13 -16 2 -23
9 -21 21 4 21 -14 22 -34 2 -10 -9 -11 -15 -4 -15 17 0 40 -26 40 -46 0 -13 3
-14 14 -5 12 10 15 6 21 -19 8 -38 25 -39 20 -1 -4 35 15 46 42 26 17 -14 17
-14 -2 -16 -11 -1 -23 -1 -27 0 -16 2 -7 -16 17 -39 14 -13 25 -18 25 -12 0 7
3 11 8 9 4 -1 8 1 10 6 5 16 1 19 -12 8 -8 -7 -17 -8 -20 -3 -3 6 0 15 7 21
10 7 29 4 73 -14 79 -33 152 -33 222 0 29 14 51 29 48 34 -3 4 -27 -2 -53 -15
-138 -70 -314 11 -402 185 l-31 60 43 -19 c23 -11 50 -20 60 -20 9 0 17 -4 17
-10 0 -18 115 -100 170 -121 61 -23 154 -27 220 -9 44 12 110 65 137 111 10
16 23 29 29 29 15 0 26 28 14 35 -14 8 -30 -3 -30 -21 0 -8 -4 -14 -8 -14 -5
0 -22 -19 -38 -42 -44 -63 -108 -91 -204 -92 -89 0 -161 28 -230 90 l-43 39
49 5 c36 4 68 -1 119 -19 74 -25 157 -25 237 -1 57 17 130 72 160 121 30 48
49 139 29 139 -6 0 -11 -10 -11 -22 0 -79 -53 -155 -142 -203 -69 -38 -188
-47 -268 -20 l-52 17 49 28 c33 19 76 32 127 39 42 6 93 20 114 30 105 55 172
151 179 260 5 70 -13 141 -37 149 -9 3 -11 -1 -5 -14 4 -11 14 -41 21 -68 41
-149 -95 -319 -273 -341 l-53 -7 25 44 c15 28 38 50 60 61 20 9 58 38 85 63
67 62 94 131 93 239 0 93 -22 152 -72 199 -43 41 -49 27 -6 -18 83 -88 86
-263 5 -374 -30 -42 -76 -79 -86 -69 -3 3 4 15 15 26 12 12 17 21 12 21 -5 0
-16 3 -25 6 -12 5 -15 -1 -13 -31 1 -28 -3 -41 -19 -52 -21 -14 -21 -13 -12
29 6 24 15 52 21 63 6 11 25 45 41 75 29 51 31 62 30 155 0 80 -4 109 -22 148
-29 64 -67 112 -109 138 -40 25 -101 41 -108 28 -3 -5 7 -11 22 -15 56 -12 83
-27 121 -68 57 -62 77 -123 77 -232 0 -80 -4 -99 -29 -152 l-29 -61 -18 52
c-13 35 -18 81 -18 142 0 96 -12 146 -54 211 -28 46 -93 106 -137 129 -31 16
-141 28 -172 19z m165 -316 c16 -12 52 -98 41 -98 -15 0 -64 32 -97 64 -38 36
-57 45 -57 27 0 -5 8 -12 19 -16 10 -3 26 -14 36 -25 18 -20 17 -20 -26 -21
-24 -1 -48 0 -54 1 -53 13 -92 17 -99 9 -6 -5 2 -9 22 -9 19 0 32 -5 32 -12 0
-10 2 -10 8 -1 4 7 13 9 20 4 15 -9 -64 -51 -97 -51 -12 0 -31 -5 -43 -11 -31
-17 -31 -6 1 38 28 38 107 96 147 106 39 10 131 7 147 -5z m107 -49 c56 -44
93 -109 105 -186 l7 -42 -51 -26 c-46 -23 -51 -24 -51 -7 0 10 16 42 35 72 31
48 43 80 31 80 -2 0 -14 -20 -26 -45 -12 -25 -26 -45 -30 -45 -5 0 -7 41 -5
90 2 50 0 90 -4 90 -4 0 -8 -19 -9 -42 -2 -47 -8 -56 -24 -40 -8 8 -8 15 1 26
7 9 9 21 5 28 -6 9 -10 5 -15 -12 -7 -27 -7 -27 -32 53 -18 60 -7 61 63 6z
m-166 -44 c7 -19 -5 -19 -30 0 -19 14 -19 14 2 15 12 0 24 -7 28 -15z m30 -3
c4 -11 18 -29 31 -42 l25 -23 0 21 c0 12 4 22 10 22 11 0 24 -65 15 -79 -3 -6
-1 -11 4 -11 11 0 14 11 12 45 -2 19 -1 19 12 2 12 -15 12 -23 1 -55 -7 -20
-13 -44 -13 -52 0 -24 29 20 30 44 0 15 3 13 10 -9 4 -16 5 -32 0 -35 -4 -3
-7 -18 -7 -35 1 -29 -21 -47 -79 -69 -5 -2 -7 -6 -3 -10 3 -4 18 0 32 10 15 9
29 14 32 12 9 -9 -71 -66 -102 -73 -23 -5 -26 -4 -14 5 13 10 12 11 -4 6 -12
-4 -27 1 -43 15 -12 13 -26 19 -30 15 -4 -4 -1 -11 7 -16 8 -5 23 -15 34 -22
16 -13 15 -14 -18 -10 -20 2 -36 10 -36 17 0 20 -37 61 -47 51 -4 -5 -2 -11 5
-13 7 -3 17 -14 23 -24 10 -20 9 -20 -20 -4 -26 13 -31 22 -31 50 0 19 -4 35
-10 35 -5 0 -8 14 -6 30 2 17 -1 30 -5 30 -5 0 -9 -9 -9 -19 0 -11 -3 -27 -6
-36 -4 -10 -2 -15 7 -13 8 2 15 -7 17 -22 l4 -25 -20 25 c-31 40 -33 76 -6
101 25 23 32 49 13 49 -5 0 -8 -4 -5 -9 3 -4 -4 -17 -15 -27 -20 -18 -20 -18
-13 11 4 17 7 30 8 30 1 0 18 8 38 18 26 11 36 21 32 32 -4 8 -11 15 -16 15
-6 0 -8 -6 -5 -14 3 -8 -5 -18 -19 -25 l-25 -11 18 30 c16 28 21 30 54 25 35
-6 60 7 44 23 -3 3 -10 0 -14 -7 -6 -9 -14 -10 -25 -4 -15 8 -14 11 8 21 21 9
32 7 65 -11 39 -21 66 -18 43 5 -14 14 -16 28 -3 28 5 0 12 -8 15 -18z m49
-29 c-6 -14 -8 -14 -20 3 -19 26 -16 36 7 24 12 -6 17 -16 13 -27z m-257 -41
c-8 -15 -37 -42 -65 -59 l-50 -32 5 32 c3 18 8 38 10 45 5 16 61 41 92 42 21
0 22 -1 8 -28z m-125 -78 c-2 -29 -14 -64 -32 -92 -15 -24 -33 -69 -39 -98 -6
-30 -16 -52 -20 -49 -13 8 -5 88 8 93 6 2 9 9 6 16 -3 7 2 19 11 26 8 7 15 21
15 31 0 11 6 19 14 19 9 0 12 8 8 25 -2 15 0 25 7 25 6 0 11 5 11 11 0 6 -9 8
-22 4 -22 -6 -22 -6 2 14 14 11 27 21 30 21 3 0 3 -21 1 -46z m103 -1 c-4 -20
-14 -44 -23 -55 -9 -10 -21 -33 -27 -51 -10 -30 -11 -31 -21 -12 -6 11 -14 36
-17 55 -6 33 -4 37 41 67 26 17 49 32 51 32 2 1 0 -15 -4 -36z m0 -153 l-3
-55 9 44 c5 24 11 46 14 48 8 8 30 -39 47 -99 16 -56 15 -57 -3 -47 -28 15
-97 79 -109 101 -11 21 6 62 22 53 5 -4 9 -1 9 4 0 6 -5 11 -10 11 -6 0 -5 8
2 20 13 20 13 20 19 -2 4 -13 5 -48 3 -78z m456 45 c-12 -36 -17 -39 -92 -49
l-38 -5 23 31 c23 32 110 82 115 67 2 -5 -2 -25 -8 -44z m-39 -74 c-25 -46
-87 -62 -146 -37 l-30 13 24 12 c23 13 92 27 139 30 19 1 21 -2 13 -18z m-313
-5 c15 -8 42 -32 60 -55 18 -23 38 -41 44 -41 7 0 -2 15 -20 33 -18 18 -32 35
-32 38 0 10 65 3 87 -9 12 -7 39 -16 60 -20 l38 -8 -35 -19 c-39 -20 -181 -28
-199 -10 -11 11 -42 105 -35 105 3 0 17 -6 32 -14z"/>
<path d="M1830 3420 c0 -5 5 -10 10 -10 6 0 10 5 10 10 0 6 -4 10 -10 10 -5 0
-10 -4 -10 -10z"/>
<path d="M1710 3404 c0 -8 5 -12 10 -9 6 4 8 11 5 16 -9 14 -15 11 -15 -7z"/>
<path d="M1760 3390 c0 -5 5 -10 10 -10 6 0 10 5 10 10 0 6 -4 10 -10 10 -5 0
-10 -4 -10 -10z"/>
<path d="M1860 3385 c0 -9 5 -15 11 -13 6 2 11 8 11 13 0 5 -5 11 -11 13 -6 2
-11 -4 -11 -13z"/>
<path d="M1656 3351 c-4 -7 -5 -15 -2 -18 9 -9 19 4 14 18 -4 11 -6 11 -12 0z"/>
<path d="M1610 3330 c0 -5 5 -10 10 -10 6 0 10 5 10 10 0 6 -4 10 -10 10 -5 0
-10 -4 -10 -10z"/>
<path d="M1936 3381 c-4 -5 -2 -12 3 -15 5 -4 12 -2 15 3 4 5 2 12 -3 15 -5 4
-12 2 -15 -3z"/>
<path d="M2006 3301 c-4 -5 -2 -12 3 -15 5 -4 12 -2 15 3 4 5 2 12 -3 15 -5 4
-12 2 -15 -3z"/>
<path d="M2005 3251 c-3 -5 -1 -12 5 -16 5 -3 10 1 10 9 0 18 -6 21 -15 7z"/>
<path d="M2040 3190 c0 -5 4 -10 9 -10 6 0 13 5 16 10 3 6 -1 10 -9 10 -9 0
-16 -4 -16 -10z"/>
<path d="M2017 3163 c-4 -3 -7 -11 -7 -17 0 -6 5 -5 12 2 6 6 9 14 7 17 -3 3
-9 2 -12 -2z"/>
<path d="M1755 3281 c-46 -20 -65 -53 -65 -111 0 -60 41 -101 107 -107 45 -5
54 -2 83 24 26 24 33 39 37 79 4 40 1 54 -18 78 -20 25 -74 56 -96 56 -4 0
-26 -9 -48 -19z m62 -50 c13 -19 23 -28 23 -20 0 8 -7 25 -16 37 -17 25 -3 30
20 6 20 -19 20 -24 0 -53 -16 -22 -15 -23 2 -19 12 2 21 15 24 33 5 24 7 27
13 12 8 -21 -19 -67 -40 -67 -8 0 -11 -4 -8 -10 6 -9 -8 -14 -27 -11 -12 2
-10 -17 2 -24 6 -4 8 -10 5 -15 -3 -4 5 -6 17 -2 13 3 19 1 15 -6 -8 -12 -54
-9 -67 4 -5 5 -10 28 -11 52 -3 51 -20 55 -43 10 -12 -27 -16 -29 -16 -12 0
33 36 73 60 67 11 -3 20 0 20 6 0 16 -32 14 -58 -5 -12 -8 -22 -11 -22 -7 0
17 24 33 50 33 14 0 31 -5 38 -12 9 -9 12 -9 12 0 0 7 -13 15 -30 18 -16 4
-27 11 -24 16 11 17 38 3 61 -31z m83 -61 c-6 -11 -23 -27 -38 -35 l-27 -16
28 6 c15 3 27 1 27 -4 0 -15 -23 -19 -49 -9 l-25 9 37 25 c20 13 37 29 37 34
0 6 5 10 10 10 7 0 7 -6 0 -20z m-144 -35 c-1 -41 -16 -48 -16 -7 0 24 7 42
15 42 1 0 1 -16 1 -35z"/>
<path d="M1780 3134 c0 -13 18 -39 24 -34 2 3 -2 14 -10 24 -8 11 -14 16 -14
10z"/>
<path d="M1942 3130 c-7 -11 -10 -20 -6 -20 7 0 34 27 34 34 0 13 -16 5 -28
-14z"/>
<path d="M1830 3036 c0 -8 61 -12 66 -4 3 4 -11 8 -30 8 -20 0 -36 -2 -36 -4z"/>
<path d="M1596 3271 c-4 -5 -2 -12 3 -15 5 -4 12 -2 15 3 4 5 2 12 -3 15 -5 4
-12 2 -15 -3z"/>
<path d="M1550 3240 c0 -5 5 -10 10 -10 6 0 10 5 10 10 0 6 -4 10 -10 10 -5 0
-10 -4 -10 -10z"/>
<path d="M1575 3179 c-10 -15 3 -25 16 -12 7 7 7 13 1 17 -6 3 -14 1 -17 -5z"/>
<path d="M1540 3135 c0 -8 5 -15 10 -15 6 0 10 7 10 15 0 8 -4 15 -10 15 -5 0
-10 -7 -10 -15z"/>
<path d="M1580 3060 c0 -5 5 -10 10 -10 6 0 10 5 10 10 0 6 -4 10 -10 10 -5 0
-10 -4 -10 -10z"/>
<path d="M1636 3031 c-4 -5 -2 -12 3 -15 5 -4 12 -2 15 3 4 5 2 12 -3 15 -5 4
-12 2 -15 -3z"/>
<path d="M1645 2980 c3 -5 8 -10 11 -10 2 0 4 5 4 10 0 6 -5 10 -11 10 -5 0
-7 -4 -4 -10z"/>
<path d="M2030 3090 c0 -5 5 -10 11 -10 5 0 7 5 4 10 -3 6 -8 10 -11 10 -2 0
-4 -4 -4 -10z"/>
<path d="M1995 3060 c3 -5 8 -10 11 -10 2 0 4 5 4 10 0 6 -5 10 -11 10 -5 0
-7 -4 -4 -10z"/>
<path d="M1965 3000 c-3 -5 1 -10 9 -10 9 0 16 5 16 10 0 6 -4 10 -9 10 -6 0
-13 -4 -16 -10z"/>
<path d="M1920 2990 c0 -5 5 -10 10 -10 6 0 10 5 10 10 0 6 -4 10 -10 10 -5 0
-10 -4 -10 -10z"/>
<path d="M1716 2971 c-4 -5 -2 -12 3 -15 5 -4 12 -2 15 3 4 5 2 12 -3 15 -5 4
-12 2 -15 -3z"/>
<path d="M1815 2960 c-3 -5 1 -10 9 -10 9 0 16 5 16 10 0 6 -4 10 -9 10 -6 0
-13 -4 -16 -10z"/>
<path d="M1746 2941 c-4 -5 -2 -12 3 -15 5 -4 12 -2 15 3 4 5 2 12 -3 15 -5 4
-12 2 -15 -3z"/>
<path d="M1860 2940 c0 -5 5 -10 10 -10 6 0 10 5 10 10 0 6 -4 10 -10 10 -5 0
-10 -4 -10 -10z"/>
<path d="M1760 3709 c0 -5 5 -7 10 -4 6 3 10 8 10 11 0 2 -4 4 -10 4 -5 0 -10
-5 -10 -11z"/>
<path d="M1810 3712 c0 -7 -7 -12 -15 -12 -8 0 -15 -5 -15 -11 0 -6 9 -8 20
-4 27 9 50 -6 24 -16 -15 -6 -11 -8 16 -9 19 -1 29 -4 22 -7 -17 -7 -5 -23 19
-23 10 0 19 -4 19 -10 0 -5 5 -10 11 -10 7 0 17 -7 24 -16 11 -16 12 -16 18 0
5 12 -1 19 -18 26 -16 6 -23 15 -19 24 4 11 0 13 -15 9 -17 -4 -21 -1 -21 21
0 14 -5 26 -11 26 -7 0 -8 -7 -4 -17 4 -11 -5 -7 -24 11 -17 17 -31 24 -31 18z"/>
<path d="M1385 3669 c-4 -6 -5 -12 -2 -15 2 -3 7 2 10 11 7 17 1 20 -8 4z"/>
<path d="M2201 3677 c2 -1 13 -9 24 -17 19 -14 19 -14 6 3 -7 9 -18 17 -24 17
-6 0 -8 -1 -6 -3z"/>
<path d="M1639 3657 c11 -14 9 -15 -21 -7 -21 6 -34 7 -36 1 -2 -6 -10 -7 -18
-4 -8 3 -14 0 -14 -7 0 -9 10 -11 30 -6 20 4 29 2 25 -5 -4 -6 3 -7 21 -3 20
5 25 4 19 -6 -5 -9 -2 -10 14 -5 13 4 28 1 37 -6 18 -15 37 1 28 24 -4 12 -14
15 -35 10 -22 -4 -29 -2 -27 8 2 7 -6 15 -17 17 -17 4 -18 2 -6 -11z"/>
<path d="M2027 3643 c10 -8 12 -12 6 -8 -7 3 -13 1 -13 -4 0 -6 4 -11 9 -11 5
0 16 -3 24 -6 11 -4 13 1 10 19 -4 18 -11 25 -29 25 -23 0 -23 -1 -7 -15z"/>
<path d="M2144 3649 c-10 -17 13 -36 27 -22 12 12 4 33 -11 33 -5 0 -12 -5
-16 -11z"/>
<path d="M1426 3633 c-12 -12 -6 -33 9 -33 8 0 15 6 15 14 0 17 -14 28 -24 19z"/>
<path d="M1750 3619 c-11 -8 -12 -12 -2 -16 6 -2 12 -13 12 -23 0 -12 10 -21
31 -25 20 -5 29 -11 25 -21 -3 -9 1 -14 14 -14 13 0 18 -5 14 -15 -4 -10 0
-15 14 -15 11 0 23 -7 26 -16 8 -22 25 -8 19 16 -4 15 -11 19 -25 14 -16 -5
-18 -2 -12 20 4 16 2 26 -5 26 -6 0 -11 -5 -11 -11 0 -21 -18 2 -25 33 -5 23
-9 27 -12 16 -8 -31 -36 -15 -44 24 -3 13 -8 15 -19 7z"/>
<path d="M2081 3622 c0 -7 -11 -16 -23 -21 l-23 -8 23 -7 c29 -10 35 -4 29 26
-2 12 -5 17 -6 10z"/>
<path d="M2100 3596 c0 -8 -7 -22 -16 -30 -14 -14 -14 -17 0 -22 10 -4 13 -12
7 -27 -4 -12 -6 -29 -4 -39 5 -21 33 -32 33 -13 0 8 5 15 10 15 6 0 10 5 10
11 0 6 -9 8 -20 4 -23 -7 -27 13 -7 34 9 11 9 15 0 18 -8 3 -10 15 -6 34 3 16
3 29 -1 29 -3 0 -6 -6 -6 -14z"/>
<path d="M1366 3588 c3 -5 10 -6 15 -3 13 9 11 12 -6 12 -8 0 -12 -4 -9 -9z"/>
<path d="M1503 3551 c4 -18 2 -21 -14 -16 -10 3 -28 8 -39 11 -11 3 -20 1 -20
-5 0 -6 8 -11 18 -12 12 0 10 -3 -7 -10 -13 -5 -26 -7 -29 -5 -2 3 -11 -2 -19
-10 -23 -23 -8 -28 28 -10 26 13 34 14 41 4 5 -9 8 -8 8 5 0 9 7 17 16 17 8 0
12 -4 9 -10 -10 -16 4 -12 24 8 17 16 17 18 -2 36 -20 19 -20 19 -14 -3z"/>
<path d="M1545 3533 c-7 -28 1 -45 10 -21 4 11 16 14 41 11 37 -4 41 1 20 23
-11 10 -15 11 -19 1 -3 -9 -9 -9 -25 0 -18 11 -21 9 -27 -14z"/>
<path d="M2200 3500 c0 -11 5 -20 10 -20 6 0 10 9 10 20 0 11 -4 20 -10 20 -5
0 -10 -9 -10 -20z"/>
<path d="M2215 3467 c-14 -11 -15 -16 -5 -22 10 -6 9 -9 -1 -16 -11 -7 -10
-11 6 -23 22 -16 45 -5 45 22 0 13 -3 12 -15 -4 -13 -18 -14 -18 -15 -1 0 10
5 27 10 38 12 22 2 25 -25 6z"/>
<path d="M2315 3460 c-7 -12 2 -30 16 -30 12 0 12 27 0 35 -5 3 -12 1 -16 -5z"/>
<path d="M3698 3450 c-60 -15 -77 -30 -34 -30 14 0 27 -4 30 -9 9 -13 10 -426
2 -440 -4 -6 -16 -11 -27 -11 -10 0 -19 -6 -19 -12 0 -10 21 -12 80 -10 83 4
96 10 58 27 -23 10 -23 13 -28 255 l-5 245 -57 -15z"/>
<path d="M3908 3453 c-51 -15 -64 -33 -24 -33 15 0 27 -7 30 -17 9 -30 5 -407
-5 -425 -6 -10 -19 -18 -29 -18 -11 0 -20 -4 -20 -10 0 -6 35 -10 85 -10 47 0
85 2 85 6 0 3 -13 10 -30 15 l-30 11 0 249 c0 137 -3 249 -7 248 -5 -1 -29 -8
-55 -16z m45 -476 c3 -8 -1 -14 -8 -14 -7 0 -11 6 -8 14 3 7 6 13 8 13 2 0 5
-6 8 -13z"/>
<path d="M4126 3431 c-14 -15 -15 -24 -6 -40 13 -26 41 -27 63 -3 16 17 15 20
-6 40 -28 27 -30 27 -51 3z m29 -21 c3 -5 1 -10 -4 -10 -6 0 -11 5 -11 10 0 6
2 10 4 10 3 0 8 -4 11 -10z"/>
<path d="M1489 3426 c16 -20 -1 -28 -33 -16 -17 6 -27 6 -32 -1 -3 -6 -12 -8
-20 -5 -8 3 -14 -1 -14 -10 0 -11 -6 -13 -20 -9 -15 5 -18 3 -14 -9 4 -12 0
-16 -17 -17 -13 0 -18 -3 -11 -6 6 -2 12 -16 12 -29 0 -13 4 -24 9 -24 4 0 6
11 4 24 -3 15 1 25 12 30 13 4 16 2 11 -9 -3 -8 -2 -15 3 -15 5 0 12 12 16 27
5 21 8 24 16 12 7 -11 10 -10 15 9 6 22 24 31 24 12 0 -11 22 -8 60 7 16 7 27
7 31 1 4 -7 9 -6 13 0 3 6 20 10 36 10 37 -1 48 8 31 25 -11 9 -14 9 -18 0 -6
-15 -33 -17 -33 -3 0 6 -7 10 -15 10 -8 0 -12 -6 -9 -14 4 -11 0 -13 -15 -9
-12 3 -24 9 -27 14 -3 5 -10 9 -16 9 -7 0 -6 -5 1 -14z"/>
<path d="M2107 3420 c3 -11 1 -20 -4 -20 -5 0 -10 -7 -10 -15 0 -8 4 -15 9
-15 13 0 9 -17 -9 -35 -13 -13 -14 -18 -3 -25 7 -4 10 -15 6 -25 -4 -11 -2
-15 6 -12 7 2 12 14 11 26 -2 11 2 21 9 21 6 0 8 3 5 7 -4 3 0 15 10 25 15 17
15 18 0 18 -21 0 -21 10 -2 36 19 25 19 40 0 24 -10 -9 -15 -9 -15 -1 0 6 -4
11 -9 11 -5 0 -7 -9 -4 -20z"/>
<path d="M1207 3415 c3 -8 9 -12 14 -9 12 7 11 11 -5 17 -10 4 -13 1 -9 -8z"/>
<path d="M1265 3421 c-7 -12 12 -24 25 -16 11 7 4 25 -10 25 -5 0 -11 -4 -15
-9z"/>
<path d="M2571 3368 c-1 -28 -4 -55 -7 -60 -3 -4 1 -8 10 -8 8 0 17 13 21 30
10 44 48 70 106 70 l49 0 0 -201 c0 -119 -4 -208 -10 -220 -6 -11 -21 -19 -35
-19 -14 0 -25 -4 -25 -10 0 -6 40 -10 100 -10 60 0 100 4 100 10 0 6 -11 10
-25 10 -14 0 -29 8 -35 19 -6 12 -10 102 -10 222 l0 201 55 -4 c62 -5 90 -25
99 -69 9 -45 30 -37 22 9 -3 20 -6 47 -6 60 l0 22 -203 0 -203 0 -3 -52z m214
-358 c3 -5 1 -10 -4 -10 -6 0 -11 5 -11 10 0 6 2 10 4 10 3 0 8 -4 11 -10z
m25 -43 c0 -2 -11 -4 -25 -5 -18 -1 -23 2 -19 13 5 11 11 12 25 4 10 -5 19
-11 19 -12z"/>
<path d="M2200 3382 c0 -6 6 -13 13 -15 9 -4 9 -8 -2 -15 -9 -6 -10 -12 -3
-16 13 -8 4 -37 -16 -52 -8 -6 -12 -16 -8 -23 4 -6 -2 -23 -13 -37 -26 -33
-26 -44 -1 -44 22 0 27 16 8 23 -8 2 0 11 17 20 17 9 24 16 18 17 -20 0 -15
31 6 37 16 4 18 10 10 35 -7 26 -5 31 11 35 25 7 26 19 3 27 -10 3 -24 9 -30
12 -7 3 -13 1 -13 -4z"/>
<path d="M1205 3359 c-4 -6 -4 -13 -1 -16 3 -4 6 -1 6 6 0 7 5 9 12 5 7 -4 8
-3 4 4 -9 15 -13 15 -21 1z"/>
<path d="M1299 3325 c-1 -3 -2 -8 -3 -12 -1 -5 -5 -14 -10 -21 -4 -7 -5 -16
-2 -19 3 -4 6 -1 6 5 0 7 7 9 17 5 12 -5 15 -2 11 9 -4 9 -1 21 5 27 8 8 7 11
-6 11 -9 0 -18 -2 -18 -5z"/>
<path d="M2319 3318 c-1 -7 0 -23 1 -35 1 -17 -3 -21 -15 -17 -13 5 -15 2 -9
-21 5 -20 4 -26 -5 -21 -7 5 -11 0 -11 -13 0 -10 -4 -21 -8 -23 -5 -1 -12 -14
-15 -28 -5 -21 -2 -25 18 -26 27 -2 31 6 13 24 -9 9 -7 12 10 12 24 0 30 16
10 22 -8 3 -4 9 10 17 26 14 30 33 5 24 -15 -5 -14 -2 4 18 19 22 20 25 5 38
-10 10 -12 16 -4 19 15 5 16 22 2 22 -5 0 -10 -6 -11 -12z"/>
<path d="M1480 3308 c-14 -6 -34 -10 -45 -9 -17 2 -17 0 -5 -8 12 -9 11 -11
-7 -11 -15 0 -21 -5 -17 -14 4 -11 0 -13 -18 -10 -20 5 -21 4 -5 -6 21 -13 14
-30 -13 -30 -13 0 -17 -5 -14 -15 5 -11 -1 -15 -20 -15 -14 0 -26 -4 -26 -10
0 -5 5 -10 10 -10 20 0 9 -18 -15 -24 -29 -7 -34 -26 -7 -26 14 -1 14 -3 -5
-19 -28 -24 -29 -37 -3 -37 12 0 20 7 20 18 0 12 5 15 16 11 14 -5 15 -3 4 17
-11 20 -10 22 4 17 13 -5 15 -2 10 20 -5 18 -3 24 4 19 7 -4 14 3 18 19 6 26
23 35 25 13 0 -7 6 -2 12 12 13 27 47 68 47 56 0 -4 7 0 16 9 9 9 21 14 28 12
10 -3 36 16 36 27 0 9 -22 6 -50 -6z"/>
<path d="M3097 3274 c-3 -3 -23 -12 -44 -19 -21 -7 -36 -17 -33 -22 3 -4 10
-7 16 -5 27 6 35 -27 32 -144 -3 -110 -5 -119 -23 -122 -11 -2 -24 -8 -29 -13
-6 -5 27 -9 83 -9 59 0 90 4 86 10 -3 6 -14 10 -24 10 -33 0 -41 22 -41 110 0
67 4 92 20 118 23 37 46 50 63 33 16 -16 42 -14 57 4 10 13 9 19 -6 36 -25 28
-61 18 -101 -28 l-33 -36 0 41 c0 39 -8 51 -23 36z m10 -61 c0 -14 -1 -14 -12
1 -7 8 -16 12 -20 8 -5 -4 -5 -2 -1 5 9 16 33 6 33 -14z"/>
<path d="M3393 3265 c-41 -18 -81 -79 -89 -135 -17 -121 71 -216 180 -196 41
8 113 67 102 84 -5 9 -16 5 -38 -13 -40 -34 -68 -39 -111 -22 -43 18 -64 48
-73 105 l-7 42 117 0 c130 0 128 -1 100 70 -28 70 -106 98 -181 65z m97 -15
c17 -9 40 -58 40 -86 0 -11 -20 -14 -86 -14 -74 0 -85 2 -80 16 3 9 6 19 6 24
0 5 12 22 26 39 27 32 59 39 94 21z m-143 -192 c-3 -8 -6 -5 -6 6 -1 11 2 17
5 13 3 -3 4 -12 1 -19z"/>
<path d="M4118 3261 c-49 -16 -63 -31 -30 -31 35 0 42 -21 42 -128 0 -110 -9
-142 -40 -142 -11 0 -20 -4 -20 -9 0 -5 36 -11 80 -13 81 -3 103 7 58 27 -22
10 -23 15 -26 163 -1 83 -6 151 -10 151 -4 -1 -28 -9 -54 -18z m42 -43 c0 -6
-6 -5 -15 2 -8 7 -15 14 -15 16 0 2 7 1 15 -2 8 -4 15 -11 15 -16z m10 -254
c0 -2 -7 -4 -15 -4 -8 0 -15 4 -15 10 0 5 7 7 15 4 8 -4 15 -8 15 -10z"/>
<path d="M4344 3262 c-45 -36 -56 -90 -28 -131 9 -13 42 -34 73 -48 63 -28 71
-36 71 -75 0 -38 -38 -62 -85 -54 -38 7 -45 15 -54 59 -4 17 -13 33 -20 35
-10 3 -12 0 -8 -12 4 -10 7 -32 7 -50 0 -39 28 -56 93 -56 85 0 139 65 113
135 -9 23 -29 39 -81 65 -71 36 -88 59 -74 97 18 49 102 37 121 -17 14 -42 28
-37 28 8 0 32 -5 41 -25 50 -38 18 -107 14 -131 -6z m41 -150 c-3 -3 -11 0
-18 7 -9 10 -8 11 6 5 10 -3 15 -9 12 -12z m99 -61 c-2 -3 -12 3 -22 13 -16
17 -16 18 5 5 12 -7 20 -15 17 -18z"/>
<path d="M4004 3240 c0 -13 4 -16 10 -10 7 7 7 13 0 20 -6 6 -10 3 -10 -10z"/>
<path d="M4221 3224 c0 -11 3 -14 6 -6 3 7 2 16 -1 19 -3 4 -6 -2 -5 -13z"/>
<path d="M1206 3181 c-7 -11 18 -33 27 -24 4 3 7 12 7 20 0 15 -26 18 -34 4z"/>
<path d="M2386 3173 c-12 -12 -6 -33 9 -33 8 0 15 6 15 14 0 17 -14 28 -24 19z"/>
<path d="M2193 3107 c-13 -5 -23 -16 -23 -24 0 -7 -6 -13 -13 -13 -8 0 -22 -9
-31 -19 -10 -11 -24 -17 -32 -14 -8 3 -14 -1 -14 -8 0 -8 13 -15 31 -16 24 -2
30 1 25 12 -4 11 2 15 25 15 18 0 28 4 24 10 -3 6 1 10 9 10 9 0 16 5 16 10 0
6 -6 10 -12 10 -9 0 -8 4 2 10 8 5 22 7 31 4 9 -2 19 2 22 9 6 17 -27 19 -60
4z"/>
<path d="M4263 3108 c-15 -20 -25 -38 -20 -38 3 0 12 11 21 25 17 26 16 35 -1
13z"/>
<path d="M4276 3082 l-19 -27 24 22 c12 12 21 24 18 27 -2 2 -13 -8 -23 -22z"/>
<path d="M1502 3057 c-7 -8 -9 -17 -5 -20 3 -4 1 -7 -5 -7 -19 0 -14 -18 5
-22 16 -3 16 -5 -4 -25 -15 -15 -18 -24 -10 -27 9 -5 9 -7 0 -12 -18 -8 -16
-27 2 -20 20 7 19 -3 -2 -26 -19 -22 -10 -36 12 -18 13 10 15 9 15 -9 0 -11 5
-21 10 -21 6 0 8 10 5 23 -9 37 -12 98 -5 102 8 5 6 83 -2 91 -3 2 -10 -2 -16
-9z"/>
<path d="M2313 3055 c-7 -8 -13 -18 -13 -23 0 -5 -6 -15 -14 -21 -11 -10 -15
-8 -19 6 -4 15 -5 14 -6 -4 0 -12 -5 -25 -11 -28 -6 -4 -7 1 -3 12 6 16 5 16
-10 4 -9 -7 -17 -20 -17 -27 0 -8 -14 -17 -31 -21 -30 -6 -31 -7 -14 -20 24
-17 35 -17 35 2 0 11 7 14 25 9 20 -5 24 -3 19 10 -5 12 0 16 22 17 25 0 26 2
9 8 -19 7 -18 9 5 21 14 7 26 13 28 12 1 -1 5 -2 10 -2 4 0 0 5 -8 10 -13 9
-13 12 3 24 9 7 17 16 17 20 0 10 -14 6 -27 -9z"/>
<path d="M1285 3041 c-6 -11 9 -23 19 -14 9 9 7 23 -3 23 -6 0 -12 -4 -16 -9z"/>
<path d="M4381 3031 c-10 -6 -9 -10 3 -14 8 -3 18 -2 21 3 8 13 -9 20 -24 11z"/>
<path d="M3800 3011 c0 -11 4 -22 9 -25 4 -3 6 6 3 19 -5 30 -12 33 -12 6z"/>
<path d="M3847 3013 c3 -7 6 -13 8 -13 2 0 5 6 8 13 3 8 -1 14 -8 14 -7 0 -11
-6 -8 -14z"/>
<path d="M4610 3005 c-23 -25 -23 -25 -4 -47 10 -13 20 -25 21 -27 5 -8 53 42
53 54 0 11 -31 45 -42 45 -2 0 -15 -11 -28 -25z m27 -30 c0 -8 -4 -12 -9 -9
-5 3 -6 10 -3 15 9 13 12 11 12 -6z"/>
<path d="M4700 3021 c0 -6 4 -12 8 -15 5 -3 9 1 9 9 0 8 -4 15 -9 15 -4 0 -8
-4 -8 -9z"/>
<path d="M2376 2962 c-3 -5 1 -9 9 -9 8 0 12 4 9 9 -3 4 -7 8 -9 8 -2 0 -6 -4
-9 -8z"/>
<path d="M2121 2942 c-16 -11 -26 -13 -28 -5 -4 12 -43 5 -43 -8 0 -14 -38
-11 -44 4 -5 10 -7 10 -12 0 -3 -7 -12 -13 -20 -13 -8 0 -14 -5 -14 -11 0 -6
6 -9 14 -6 7 3 18 1 24 -5 7 -7 17 -6 32 2 16 9 25 9 33 1 17 -17 31 -13 17 4
-20 24 -5 29 31 11 18 -9 33 -16 34 -16 1 0 2 14 2 30 0 17 -1 30 -1 29 -1 0
-12 -8 -25 -17z"/>
<path d="M3606 2948 c3 -5 10 -6 15 -3 13 9 11 12 -6 12 -8 0 -12 -4 -9 -9z"/>
<path d="M1210 2930 c-6 -11 -8 -20 -6 -20 3 0 10 9 16 20 6 11 8 20 6 20 -3
0 -10 -9 -16 -20z"/>
<path d="M1587 2943 c-12 -11 -8 -35 5 -27 8 5 9 -5 5 -35 -4 -34 -2 -41 9
-37 14 5 18 -3 15 -39 -2 -17 0 -18 9 -5 9 13 11 13 19 0 6 -8 13 -11 17 -7 4
4 -2 17 -14 30 -23 24 -30 43 -12 32 6 -3 10 -2 10 4 0 6 -9 15 -21 21 -11 7
-18 17 -16 24 6 14 -17 48 -26 39z"/>
<path d="M4695 2939 c-4 -6 -5 -12 -2 -15 2 -3 7 2 10 11 7 17 1 20 -8 4z"/>
<path d="M1274 2919 c-10 -17 13 -36 27 -22 12 12 4 33 -11 33 -5 0 -12 -5
-16 -11z"/>
<path d="M3606 2917 c3 -10 9 -15 12 -12 3 3 0 11 -7 18 -10 9 -11 8 -5 -6z"/>
<path d="M4250 2911 c0 -7 -4 -10 -8 -7 -5 3 -9 -2 -9 -10 0 -13 2 -13 16 0 8
9 12 19 8 22 -4 4 -7 2 -7 -5z"/>
<path d="M4570 2899 c13 -23 25 -25 16 -3 -5 12 -1 14 17 8 12 -3 19 -3 15 1
-4 4 -19 9 -33 10 -22 3 -23 1 -15 -16z"/>
<path d="M4296 2893 c-6 -14 -5 -15 5 -6 7 7 10 15 7 18 -3 3 -9 -2 -12 -12z"/>
<path d="M4660 2906 c0 -2 7 -7 16 -10 8 -3 12 -2 9 4 -6 10 -25 14 -25 6z"/>
<path d="M3000 2895 c0 -7 30 -13 34 -7 3 4 -4 9 -15 9 -10 1 -19 0 -19 -2z"/>
<path d="M3880 2895 c0 -7 30 -13 34 -7 3 4 -4 9 -15 9 -10 1 -19 0 -19 -2z"/>
<path d="M4045 2890 c-3 -6 1 -7 9 -4 18 7 21 14 7 14 -6 0 -13 -4 -16 -10z"/>
<path d="M1710 2859 c0 -12 5 -16 15 -13 9 4 16 -3 20 -19 5 -17 12 -24 21
-20 10 3 16 -5 20 -26 6 -29 24 -44 24 -20 0 7 10 9 25 5 14 -4 25 -2 25 3 0
10 -39 27 -52 23 -5 -1 -8 7 -8 18 0 13 -7 20 -20 20 -13 0 -20 7 -20 19 0 12
-9 20 -25 23 -19 4 -25 1 -25 -13z"/>
<path d="M1845 2869 c-4 -6 -5 -13 -2 -16 7 -7 27 6 27 18 0 12 -17 12 -25 -2z"/>
<path d="M1900 2860 c0 -5 -7 -7 -15 -4 -10 4 -15 0 -15 -11 0 -11 5 -15 15
-11 9 3 15 0 15 -8 0 -13 15 -15 78 -7 22 2 12 22 -10 20 -44 -4 -58 1 -52 16
4 8 1 15 -5 15 -6 0 -11 -4 -11 -10z"/>
<path d="M2172 2839 c-7 -12 -10 -24 -6 -27 4 -4 9 -2 11 5 2 7 11 9 20 6 13
-5 14 -3 4 15 -14 27 -13 27 -29 1z"/>
<path d="M2210 2850 c0 -5 5 -10 10 -10 6 0 10 5 10 10 0 6 -4 10 -10 10 -5 0
-10 -4 -10 -10z"/>
<path d="M1486 2841 c-3 -4 -1 -13 5 -21 5 -8 9 -26 10 -40 0 -23 1 -23 8 -5
8 19 8 19 15 -2 4 -13 5 -27 1 -32 -3 -5 -1 -12 5 -16 5 -3 10 -1 10 5 0 6 4
9 10 5 5 -3 6 -13 3 -22 -5 -12 -2 -15 10 -10 10 4 20 0 26 -11 5 -9 12 -14
15 -11 3 3 -8 21 -24 41 -21 25 -26 38 -18 41 8 3 7 6 -4 6 -9 1 -20 5 -23 11
-3 6 1 7 9 4 9 -3 16 -3 16 0 0 4 -12 11 -27 17 -23 9 -25 12 -11 18 15 5 14
8 -7 18 -14 6 -27 8 -29 4z"/>
<path d="M2136 2835 c-3 -8 -10 -15 -16 -15 -6 0 -8 5 -5 10 10 16 -11 11 -25
-5 -11 -13 -15 -13 -22 -3 -6 10 -10 10 -16 1 -4 -6 -14 -11 -22 -11 -37 2
-49 -3 -44 -17 4 -8 10 -15 16 -15 5 0 7 4 4 9 -3 5 6 9 19 9 15 0 25 -6 25
-14 0 -8 5 -14 10 -14 6 0 10 7 10 15 0 19 9 19 32 -2 20 -18 25 -5 6 16 -11
12 -9 13 7 6 11 -4 29 -9 40 -12 18 -4 18 -3 2 7 -13 9 -15 15 -7 31 6 11 7
19 1 19 -5 0 -11 -7 -15 -15z"/>
<path d="M1843 2737 c4 -11 9 -13 49 -16 11 -1 15 -7 12 -15 -3 -8 -1 -17 5
-21 6 -3 11 1 11 9 0 20 19 21 26 2 3 -8 12 -17 21 -20 11 -4 13 -2 9 9 -5 13
-2 14 15 4 14 -7 24 -8 31 -1 6 6 17 8 26 5 10 -4 13 -2 8 5 -4 7 -19 10 -32
8 -30 -6 -56 3 -48 15 3 6 -5 7 -20 3 -23 -5 -25 -4 -19 12 6 16 4 17 -9 7 -8
-7 -17 -11 -19 -9 -2 2 -19 6 -37 9 -25 5 -32 3 -29 -6z"/>
<path d="M2157 2733 c-13 -12 -7 -33 8 -33 8 0 15 9 15 20 0 20 -11 26 -23 13z"/>
<path d="M1437 2724 c-9 -10 2 -24 19 -24 8 0 14 7 14 15 0 15 -21 21 -33 9z"/>
<path d="M2145 2660 c-3 -6 1 -7 9 -4 18 7 21 14 7 14 -6 0 -13 -4 -16 -10z"/>
<path d="M1835 2640 c-3 -5 -1 -10 4 -10 6 0 11 5 11 10 0 6 -2 10 -4 10 -3 0
-8 -4 -11 -10z"/>
<path d="M1934 2619 c-8 -14 11 -33 25 -25 6 4 11 11 11 16 0 13 -29 20 -36 9z"/>
<path d="M1674 2609 c-10 -17 13 -36 27 -22 12 12 4 33 -11 33 -5 0 -12 -5
-16 -11z"/>
<path d="M1916 2572 c-3 -5 1 -9 9 -9 8 0 12 4 9 9 -3 4 -7 8 -9 8 -2 0 -6 -4
-9 -8z"/>
</g>
</svg>
